<?xml version="1.0" encoding="us-ascii" standalone="no"?><svg xmlns="http://www.w3.org/2000/svg" xmlns:xlink="http://www.w3.org/1999/xlink" contentStyleType="text/css" height="150px" preserveAspectRatio="none" style="width:174px;height:150px;background:#FFFFFF;" version="1.1" viewBox="0 0 174 150" width="174px" zoomAndPan="magnify"><defs/><g><!--class Classe--><g id="elem_Classe"><rect codeLine="2" fill="#F1F1F1" height="129.4844" id="Classe" rx="2.5" ry="2.5" style="stroke:#181818;stroke-width:0.5;" width="153" x="7" y="7"/><ellipse cx="56.25" cy="23" fill="#ADD1B2" rx="11" ry="11" style="stroke:#181818;stroke-width:1.0;"/><path d="M59.2188,28.6406 Q58.6406,28.9375 58,29.0781 Q57.3594,29.2344 56.6563,29.2344 Q54.1563,29.2344 52.8281,27.5938 Q51.5156,25.9375 51.5156,22.8125 Q51.5156,19.6875 52.8281,18.0313 Q54.1563,16.375 56.6563,16.375 Q57.3594,16.375 58,16.5313 Q58.6563,16.6875 59.2188,16.9844 L59.2188,19.7031 Q58.5938,19.125 58,18.8594 Q57.4063,18.5781 56.7813,18.5781 Q55.4375,18.5781 54.75,19.6563 Q54.0625,20.7188 54.0625,22.8125 Q54.0625,24.9063 54.75,25.9844 Q55.4375,27.0469 56.7813,27.0469 Q57.4063,27.0469 58,26.7813 Q58.5938,26.5 59.2188,25.9219 L59.2188,28.6406 Z " fill="#000000"/><text fill="#000000" font-family="sans-serif" font-size="14" lengthAdjust="spacing" textLength="46" x="76.75" y="27.8467">Classe</text><line style="stroke:#181818;stroke-width:0.5;" x1="8" x2="159" y1="39" y2="39"/><text fill="#000000" font-family="sans-serif" font-size="14" lengthAdjust="spacing" textLength="104" x="13" y="55.9951">-atributoPrivate</text><text fill="#000000" font-family="sans-serif" font-size="14" lengthAdjust="spacing" textLength="133" x="13" y="72.292">#atributoProtected</text><text fill="#000000" font-family="sans-serif" font-size="14" lengthAdjust="spacing" textLength="124" x="13" y="88.5889">~atributoPackage</text><text fill="#000000" font-family="sans-serif" font-size="14" lengthAdjust="spacing" textLength="106" x="13" y="104.8857">+atributoPublic</text><line style="stroke:#181818;stroke-width:0.5;" x1="8" x2="159" y1="112.1875" y2="112.1875"/><text fill="#000000" font-family="sans-serif" font-size="14" lengthAdjust="spacing" textLength="141" x="13" y="129.1826">~methodDaClasse()</text></g><!--SRC=[AyxEp2j8B4hCLKZEIImkTYmfASfCAYr9zKpEpmlEh4fLCE02IoWuWyZKQYu5tKI8alo0eioon99KBWLbX4X-IMfoIMeALnrSA34vEp4zbKiRBb2Qb9EPpCMbK9URMfAHd-AI235PGvEh5W00]--></g></svg>