<?xml version="1.0" encoding="us-ascii" standalone="no"?><svg xmlns="http://www.w3.org/2000/svg" xmlns:xlink="http://www.w3.org/1999/xlink" contentStyleType="text/css" height="187px" preserveAspectRatio="none" style="width:674px;height:187px;background:#FFFFFF;" version="1.1" viewBox="0 0 674 187" width="674px" zoomAndPan="magnify"><defs/><g><!--class Classe01--><g id="elem_Classe01"><rect fill="#F1F1F1" height="48" id="Classe01" rx="2.5" ry="2.5" style="stroke:#181818;stroke-width:0.5;" width="96" x="7" y="7"/><ellipse cx="22" cy="23" fill="#ADD1B2" rx="11" ry="11" style="stroke:#181818;stroke-width:1.0;"/><path d="M24.9688,28.6406 Q24.3906,28.9375 23.75,29.0781 Q23.1094,29.2344 22.4063,29.2344 Q19.9063,29.2344 18.5781,27.5938 Q17.2656,25.9375 17.2656,22.8125 Q17.2656,19.6875 18.5781,18.0313 Q19.9063,16.375 22.4063,16.375 Q23.1094,16.375 23.75,16.5313 Q24.4063,16.6875 24.9688,16.9844 L24.9688,19.7031 Q24.3438,19.125 23.75,18.8594 Q23.1563,18.5781 22.5313,18.5781 Q21.1875,18.5781 20.5,19.6563 Q19.8125,20.7188 19.8125,22.8125 Q19.8125,24.9063 20.5,25.9844 Q21.1875,27.0469 22.5313,27.0469 Q23.1563,27.0469 23.75,26.7813 Q24.3438,26.5 24.9688,25.9219 L24.9688,28.6406 Z " fill="#000000"/><text fill="#000000" font-family="sans-serif" font-size="14" lengthAdjust="spacing" textLength="64" x="36" y="27.8467">Classe01</text><line style="stroke:#181818;stroke-width:0.5;" x1="8" x2="102" y1="39" y2="39"/><line style="stroke:#181818;stroke-width:0.5;" x1="8" x2="102" y1="47" y2="47"/></g><!--class Classe02--><g id="elem_Classe02"><rect fill="#F1F1F1" height="48" id="Classe02" rx="2.5" ry="2.5" style="stroke:#181818;stroke-width:0.5;" width="96" x="7" y="132"/><ellipse cx="22" cy="148" fill="#ADD1B2" rx="11" ry="11" style="stroke:#181818;stroke-width:1.0;"/><path d="M24.9688,153.6406 Q24.3906,153.9375 23.75,154.0781 Q23.1094,154.2344 22.4063,154.2344 Q19.9063,154.2344 18.5781,152.5938 Q17.2656,150.9375 17.2656,147.8125 Q17.2656,144.6875 18.5781,143.0313 Q19.9063,141.375 22.4063,141.375 Q23.1094,141.375 23.75,141.5313 Q24.4063,141.6875 24.9688,141.9844 L24.9688,144.7031 Q24.3438,144.125 23.75,143.8594 Q23.1563,143.5781 22.5313,143.5781 Q21.1875,143.5781 20.5,144.6563 Q19.8125,145.7188 19.8125,147.8125 Q19.8125,149.9063 20.5,150.9844 Q21.1875,152.0469 22.5313,152.0469 Q23.1563,152.0469 23.75,151.7813 Q24.3438,151.5 24.9688,150.9219 L24.9688,153.6406 Z " fill="#000000"/><text fill="#000000" font-family="sans-serif" font-size="14" lengthAdjust="spacing" textLength="64" x="36" y="152.8467">Classe02</text><line style="stroke:#181818;stroke-width:0.5;" x1="8" x2="102" y1="164" y2="164"/><line style="stroke:#181818;stroke-width:0.5;" x1="8" x2="102" y1="172" y2="172"/></g><!--class Classe03--><g id="elem_Classe03"><rect fill="#F1F1F1" height="48" id="Classe03" rx="2.5" ry="2.5" style="stroke:#181818;stroke-width:0.5;" width="96" x="140" y="7"/><ellipse cx="155" cy="23" fill="#ADD1B2" rx="11" ry="11" style="stroke:#181818;stroke-width:1.0;"/><path d="M157.9688,28.6406 Q157.3906,28.9375 156.75,29.0781 Q156.1094,29.2344 155.4063,29.2344 Q152.9063,29.2344 151.5781,27.5938 Q150.2656,25.9375 150.2656,22.8125 Q150.2656,19.6875 151.5781,18.0313 Q152.9063,16.375 155.4063,16.375 Q156.1094,16.375 156.75,16.5313 Q157.4063,16.6875 157.9688,16.9844 L157.9688,19.7031 Q157.3438,19.125 156.75,18.8594 Q156.1563,18.5781 155.5313,18.5781 Q154.1875,18.5781 153.5,19.6563 Q152.8125,20.7188 152.8125,22.8125 Q152.8125,24.9063 153.5,25.9844 Q154.1875,27.0469 155.5313,27.0469 Q156.1563,27.0469 156.75,26.7813 Q157.3438,26.5 157.9688,25.9219 L157.9688,28.6406 Z " fill="#000000"/><text fill="#000000" font-family="sans-serif" font-size="14" lengthAdjust="spacing" textLength="64" x="169" y="27.8467">Classe03</text><line style="stroke:#181818;stroke-width:0.5;" x1="141" x2="235" y1="39" y2="39"/><line style="stroke:#181818;stroke-width:0.5;" x1="141" x2="235" y1="47" y2="47"/></g><!--class Classe04--><g id="elem_Classe04"><rect fill="#F1F1F1" height="48" id="Classe04" rx="2.5" ry="2.5" style="stroke:#181818;stroke-width:0.5;" width="96" x="140" y="132"/><ellipse cx="155" cy="148" fill="#ADD1B2" rx="11" ry="11" style="stroke:#181818;stroke-width:1.0;"/><path d="M157.9688,153.6406 Q157.3906,153.9375 156.75,154.0781 Q156.1094,154.2344 155.4063,154.2344 Q152.9063,154.2344 151.5781,152.5938 Q150.2656,150.9375 150.2656,147.8125 Q150.2656,144.6875 151.5781,143.0313 Q152.9063,141.375 155.4063,141.375 Q156.1094,141.375 156.75,141.5313 Q157.4063,141.6875 157.9688,141.9844 L157.9688,144.7031 Q157.3438,144.125 156.75,143.8594 Q156.1563,143.5781 155.5313,143.5781 Q154.1875,143.5781 153.5,144.6563 Q152.8125,145.7188 152.8125,147.8125 Q152.8125,149.9063 153.5,150.9844 Q154.1875,152.0469 155.5313,152.0469 Q156.1563,152.0469 156.75,151.7813 Q157.3438,151.5 157.9688,150.9219 L157.9688,153.6406 Z " fill="#000000"/><text fill="#000000" font-family="sans-serif" font-size="14" lengthAdjust="spacing" textLength="64" x="169" y="152.8467">Classe04</text><line style="stroke:#181818;stroke-width:0.5;" x1="141" x2="235" y1="164" y2="164"/><line style="stroke:#181818;stroke-width:0.5;" x1="141" x2="235" y1="172" y2="172"/></g><!--class Classe05--><g id="elem_Classe05"><rect fill="#F1F1F1" height="48" id="Classe05" rx="2.5" ry="2.5" style="stroke:#181818;stroke-width:0.5;" width="96" x="271" y="7"/><ellipse cx="286" cy="23" fill="#ADD1B2" rx="11" ry="11" style="stroke:#181818;stroke-width:1.0;"/><path d="M288.9688,28.6406 Q288.3906,28.9375 287.75,29.0781 Q287.1094,29.2344 286.4063,29.2344 Q283.9063,29.2344 282.5781,27.5938 Q281.2656,25.9375 281.2656,22.8125 Q281.2656,19.6875 282.5781,18.0313 Q283.9063,16.375 286.4063,16.375 Q287.1094,16.375 287.75,16.5313 Q288.4063,16.6875 288.9688,16.9844 L288.9688,19.7031 Q288.3438,19.125 287.75,18.8594 Q287.1563,18.5781 286.5313,18.5781 Q285.1875,18.5781 284.5,19.6563 Q283.8125,20.7188 283.8125,22.8125 Q283.8125,24.9063 284.5,25.9844 Q285.1875,27.0469 286.5313,27.0469 Q287.1563,27.0469 287.75,26.7813 Q288.3438,26.5 288.9688,25.9219 L288.9688,28.6406 Z " fill="#000000"/><text fill="#000000" font-family="sans-serif" font-size="14" lengthAdjust="spacing" textLength="64" x="300" y="27.8467">Classe05</text><line style="stroke:#181818;stroke-width:0.5;" x1="272" x2="366" y1="39" y2="39"/><line style="stroke:#181818;stroke-width:0.5;" x1="272" x2="366" y1="47" y2="47"/></g><!--class Classe06--><g id="elem_Classe06"><rect fill="#F1F1F1" height="48" id="Classe06" rx="2.5" ry="2.5" style="stroke:#181818;stroke-width:0.5;" width="96" x="271" y="132"/><ellipse cx="286" cy="148" fill="#ADD1B2" rx="11" ry="11" style="stroke:#181818;stroke-width:1.0;"/><path d="M288.9688,153.6406 Q288.3906,153.9375 287.75,154.0781 Q287.1094,154.2344 286.4063,154.2344 Q283.9063,154.2344 282.5781,152.5938 Q281.2656,150.9375 281.2656,147.8125 Q281.2656,144.6875 282.5781,143.0313 Q283.9063,141.375 286.4063,141.375 Q287.1094,141.375 287.75,141.5313 Q288.4063,141.6875 288.9688,141.9844 L288.9688,144.7031 Q288.3438,144.125 287.75,143.8594 Q287.1563,143.5781 286.5313,143.5781 Q285.1875,143.5781 284.5,144.6563 Q283.8125,145.7188 283.8125,147.8125 Q283.8125,149.9063 284.5,150.9844 Q285.1875,152.0469 286.5313,152.0469 Q287.1563,152.0469 287.75,151.7813 Q288.3438,151.5 288.9688,150.9219 L288.9688,153.6406 Z " fill="#000000"/><text fill="#000000" font-family="sans-serif" font-size="14" lengthAdjust="spacing" textLength="64" x="300" y="152.8467">Classe06</text><line style="stroke:#181818;stroke-width:0.5;" x1="272" x2="366" y1="164" y2="164"/><line style="stroke:#181818;stroke-width:0.5;" x1="272" x2="366" y1="172" y2="172"/></g><!--class Classe07--><g id="elem_Classe07"><rect fill="#F1F1F1" height="48" id="Classe07" rx="2.5" ry="2.5" style="stroke:#181818;stroke-width:0.5;" width="96" x="402" y="7"/><ellipse cx="417" cy="23" fill="#ADD1B2" rx="11" ry="11" style="stroke:#181818;stroke-width:1.0;"/><path d="M419.9688,28.6406 Q419.3906,28.9375 418.75,29.0781 Q418.1094,29.2344 417.4063,29.2344 Q414.9063,29.2344 413.5781,27.5938 Q412.2656,25.9375 412.2656,22.8125 Q412.2656,19.6875 413.5781,18.0313 Q414.9063,16.375 417.4063,16.375 Q418.1094,16.375 418.75,16.5313 Q419.4063,16.6875 419.9688,16.9844 L419.9688,19.7031 Q419.3438,19.125 418.75,18.8594 Q418.1563,18.5781 417.5313,18.5781 Q416.1875,18.5781 415.5,19.6563 Q414.8125,20.7188 414.8125,22.8125 Q414.8125,24.9063 415.5,25.9844 Q416.1875,27.0469 417.5313,27.0469 Q418.1563,27.0469 418.75,26.7813 Q419.3438,26.5 419.9688,25.9219 L419.9688,28.6406 Z " fill="#000000"/><text fill="#000000" font-family="sans-serif" font-size="14" lengthAdjust="spacing" textLength="64" x="431" y="27.8467">Classe07</text><line style="stroke:#181818;stroke-width:0.5;" x1="403" x2="497" y1="39" y2="39"/><line style="stroke:#181818;stroke-width:0.5;" x1="403" x2="497" y1="47" y2="47"/></g><!--class Classe08--><g id="elem_Classe08"><rect fill="#F1F1F1" height="48" id="Classe08" rx="2.5" ry="2.5" style="stroke:#181818;stroke-width:0.5;" width="96" x="402" y="132"/><ellipse cx="417" cy="148" fill="#ADD1B2" rx="11" ry="11" style="stroke:#181818;stroke-width:1.0;"/><path d="M419.9688,153.6406 Q419.3906,153.9375 418.75,154.0781 Q418.1094,154.2344 417.4063,154.2344 Q414.9063,154.2344 413.5781,152.5938 Q412.2656,150.9375 412.2656,147.8125 Q412.2656,144.6875 413.5781,143.0313 Q414.9063,141.375 417.4063,141.375 Q418.1094,141.375 418.75,141.5313 Q419.4063,141.6875 419.9688,141.9844 L419.9688,144.7031 Q419.3438,144.125 418.75,143.8594 Q418.1563,143.5781 417.5313,143.5781 Q416.1875,143.5781 415.5,144.6563 Q414.8125,145.7188 414.8125,147.8125 Q414.8125,149.9063 415.5,150.9844 Q416.1875,152.0469 417.5313,152.0469 Q418.1563,152.0469 418.75,151.7813 Q419.3438,151.5 419.9688,150.9219 L419.9688,153.6406 Z " fill="#000000"/><text fill="#000000" font-family="sans-serif" font-size="14" lengthAdjust="spacing" textLength="64" x="431" y="152.8467">Classe08</text><line style="stroke:#181818;stroke-width:0.5;" x1="403" x2="497" y1="164" y2="164"/><line style="stroke:#181818;stroke-width:0.5;" x1="403" x2="497" y1="172" y2="172"/></g><!--class Classe09--><g id="elem_Classe09"><rect fill="#F1F1F1" height="48" id="Classe09" rx="2.5" ry="2.5" style="stroke:#181818;stroke-width:0.5;" width="96" x="533" y="7"/><ellipse cx="548" cy="23" fill="#ADD1B2" rx="11" ry="11" style="stroke:#181818;stroke-width:1.0;"/><path d="M550.9688,28.6406 Q550.3906,28.9375 549.75,29.0781 Q549.1094,29.2344 548.4063,29.2344 Q545.9063,29.2344 544.5781,27.5938 Q543.2656,25.9375 543.2656,22.8125 Q543.2656,19.6875 544.5781,18.0313 Q545.9063,16.375 548.4063,16.375 Q549.1094,16.375 549.75,16.5313 Q550.4063,16.6875 550.9688,16.9844 L550.9688,19.7031 Q550.3438,19.125 549.75,18.8594 Q549.1563,18.5781 548.5313,18.5781 Q547.1875,18.5781 546.5,19.6563 Q545.8125,20.7188 545.8125,22.8125 Q545.8125,24.9063 546.5,25.9844 Q547.1875,27.0469 548.5313,27.0469 Q549.1563,27.0469 549.75,26.7813 Q550.3438,26.5 550.9688,25.9219 L550.9688,28.6406 Z " fill="#000000"/><text fill="#000000" font-family="sans-serif" font-size="14" lengthAdjust="spacing" textLength="64" x="562" y="27.8467">Classe09</text><line style="stroke:#181818;stroke-width:0.5;" x1="534" x2="628" y1="39" y2="39"/><line style="stroke:#181818;stroke-width:0.5;" x1="534" x2="628" y1="47" y2="47"/></g><!--class Classe10--><g id="elem_Classe10"><rect fill="#F1F1F1" height="48" id="Classe10" rx="2.5" ry="2.5" style="stroke:#181818;stroke-width:0.5;" width="96" x="533" y="132"/><ellipse cx="548" cy="148" fill="#ADD1B2" rx="11" ry="11" style="stroke:#181818;stroke-width:1.0;"/><path d="M550.9688,153.6406 Q550.3906,153.9375 549.75,154.0781 Q549.1094,154.2344 548.4063,154.2344 Q545.9063,154.2344 544.5781,152.5938 Q543.2656,150.9375 543.2656,147.8125 Q543.2656,144.6875 544.5781,143.0313 Q545.9063,141.375 548.4063,141.375 Q549.1094,141.375 549.75,141.5313 Q550.4063,141.6875 550.9688,141.9844 L550.9688,144.7031 Q550.3438,144.125 549.75,143.8594 Q549.1563,143.5781 548.5313,143.5781 Q547.1875,143.5781 546.5,144.6563 Q545.8125,145.7188 545.8125,147.8125 Q545.8125,149.9063 546.5,150.9844 Q547.1875,152.0469 548.5313,152.0469 Q549.1563,152.0469 549.75,151.7813 Q550.3438,151.5 550.9688,150.9219 L550.9688,153.6406 Z " fill="#000000"/><text fill="#000000" font-family="sans-serif" font-size="14" lengthAdjust="spacing" textLength="64" x="562" y="152.8467">Classe10</text><line style="stroke:#181818;stroke-width:0.5;" x1="534" x2="628" y1="164" y2="164"/><line style="stroke:#181818;stroke-width:0.5;" x1="534" x2="628" y1="172" y2="172"/></g><!--reverse link Classe01 to Classe02--><g id="link_Classe01_Classe02"><path codeLine="1" d="M52.2964,73.4367 C51.7364,82.6367 52.27,75.33 52,85 C51.56,100.56 52.31,118.06 53.17,131.67 " fill="none" id="Classe01-backto-Classe02" style="stroke:#181818;stroke-width:1.0;"/><polygon fill="none" points="53.39,55.47,46.3075,73.0722,58.2853,73.8013,53.39,55.47" style="stroke:#181818;stroke-width:1.0;"/><text fill="#000000" font-family="sans-serif" font-size="13" lengthAdjust="spacing" textLength="91" x="53" y="98.0669">Generaliza&#231;&#227;o</text></g><!--link Classe03 to Classe04--><g id="link_Classe03_Classe04"><path codeLine="2" d="M188,55.42 C188,77.31 188,109.8 188,131.66 " fill="none" id="Classe03-Classe04" style="stroke:#181818;stroke-width:1.0;"/><text fill="#000000" font-family="sans-serif" font-size="13" lengthAdjust="spacing" textLength="72" x="189" y="98.0669">Associa&#231;&#227;o</text></g><!--reverse link Classe05 to Classe06--><g id="link_Classe05_Classe06"><path codeLine="3" d="M319,67.42 C319,89.31 319,109.8 319,131.66 " fill="none" id="Classe05-backto-Classe06" style="stroke:#181818;stroke-width:1.0;"/><polygon fill="none" points="319,55.42,315,61.42,319,67.42,323,61.42,319,55.42" style="stroke:#181818;stroke-width:1.0;"/><text fill="#000000" font-family="sans-serif" font-size="13" lengthAdjust="spacing" textLength="69" x="320" y="98.0669">Agrega&#231;&#227;o</text></g><!--reverse link Classe07 to Classe08--><g id="link_Classe07_Classe08"><path codeLine="4" d="M450,67.42 C450,89.31 450,109.8 450,131.66 " fill="none" id="Classe07-backto-Classe08" style="stroke:#181818;stroke-width:1.0;"/><polygon fill="#181818" points="450,55.42,446,61.42,450,67.42,454,61.42,450,55.42" style="stroke:#181818;stroke-width:1.0;"/><text fill="#000000" font-family="sans-serif" font-size="13" lengthAdjust="spacing" textLength="79" x="451" y="98.0669">Composi&#231;&#227;o</text></g><!--link Classe09 to Classe10--><g id="link_Classe09_Classe10"><path codeLine="5" d="M581,55.42 C581,77.31 581,109.8 581,131.66 " fill="none" id="Classe09-Classe10" style="stroke:#181818;stroke-width:1.0;stroke-dasharray:7.0,7.0;"/><text fill="#000000" font-family="sans-serif" font-size="13" lengthAdjust="spacing" textLength="84" x="582" y="98.0669">Depend&#234;ncia</text></g><!--SRC=[Syv9B2vEDJ1KiAdHrLLmXl2C5ApSK_DIYn9pCgiI3oy_l3YV2ofZh81GPQ9WvLXSd9-SYQh4L24VeSOCg2QzA3KTLOcvWXP2YOM2bND-Ra5-SIQA6ai5FJse4aC31IkNr8BKl9J3g_A0rW40]--></g></svg>